<svg width="32" height="32" viewBox="0 0 32 32" fill="none" xmlns="http://www.w3.org/2000/svg">
<path d="M30.1125 19.6L27.45 18.0625C27.7187 16.6125 27.7187 15.125 27.45 13.675L30.1125 12.1375C30.4187 11.9625 30.5562 11.6 30.4562 11.2625C29.7625 9.03749 28.5812 7.02499 27.0375 5.34999C26.8 5.09374 26.4125 5.03124 26.1125 5.20624L23.45 6.74374C22.3312 5.78124 21.0437 5.03749 19.65 4.54999V1.48124C19.65 1.13124 19.4062 0.824992 19.0625 0.749992C16.7687 0.237492 14.4187 0.262492 12.2375 0.749992C11.8937 0.824992 11.65 1.13124 11.65 1.48124V4.55624C10.2625 5.04999 8.97498 5.79374 7.84998 6.74999L5.19373 5.21249C4.88748 5.03749 4.50623 5.09374 4.26873 5.35624C2.72498 7.02499 1.54373 9.03749 0.849979 11.2687C0.743729 11.6062 0.887479 11.9687 1.19373 12.1437L3.85623 13.6812C3.58748 15.1312 3.58748 16.6187 3.85623 18.0687L1.19373 19.6062C0.887479 19.7812 0.749979 20.1437 0.849979 20.4812C1.54373 22.7062 2.72498 24.7187 4.26873 26.3937C4.50623 26.65 4.89373 26.7125 5.19373 26.5375L7.85623 25C8.97498 25.9625 10.2625 26.7062 11.6562 27.1937V30.2687C11.6562 30.6187 11.9 30.925 12.2437 31C14.5375 31.5125 16.8875 31.4875 19.0687 31C19.4125 30.925 19.6562 30.6187 19.6562 30.2687V27.1937C21.0437 26.7 22.3312 25.9562 23.4562 25L26.1187 26.5375C26.425 26.7125 26.8062 26.6562 27.0437 26.3937C28.5875 24.725 29.7687 22.7125 30.4625 20.4812C30.5562 20.1375 30.4187 19.775 30.1125 19.6ZM15.65 21C12.8938 21 10.15 18.125 10.15 15.3687C10.15 12.6125 12.8938 9.86873 15.65 9.86873C18.4063 9.86873 21 12.7437 21 15.5C21 18.2563 18.4063 21 15.65 21Z" fill="#AEAEAE" fill-opacity="0.59"/>
</svg>
